<svg width="24" height="24" viewBox="0 0 24 24" fill="none" xmlns="http://www.w3.org/2000/svg">
<path d="M4.80054 21.578C6.87168 23.1495 9.39989 23.9999 11.9998 23.9999C14.5996 23.9999 17.1274 23.1494 19.199 21.578C19.192 19.0107 17.8184 16.6414 15.5939 15.3597C13.3693 14.0781 10.6307 14.0781 8.40618 15.3597C6.18173 16.6413 4.80817 19.0105 4.80114 21.578H4.80054Z" fill="black" fill-opacity="0.5"/>
<path d="M11.9998 3.25761e-06C9.62086 -0.00174997 7.29528 0.704216 5.31874 2.02811C3.34204 3.35181 1.8039 5.2336 0.899813 7.43401C-0.00427875 9.63432 -0.23358 12.054 0.241381 14.3849C0.716117 16.7159 1.87362 18.8531 3.56651 20.5244C3.76949 18.9519 4.40726 17.4671 5.4078 16.2373C6.40849 15.0073 7.73239 14.081 9.23083 13.5624C8.02343 12.7635 7.22008 11.4821 7.02683 10.0474C6.83359 8.61269 7.26936 7.16432 8.22216 6.07436C9.17513 4.9846 10.5522 4.35928 12 4.35928C13.4478 4.35928 14.8249 4.9846 15.7779 6.07436C16.7306 7.16427 17.1664 8.61264 16.9732 10.0474C16.7799 11.4822 15.9766 12.7636 14.7692 13.5624C16.2676 14.081 17.5915 15.0073 18.5922 16.2373C19.5927 17.4671 20.2305 18.9519 20.4335 20.5244C22.1263 18.8529 23.2839 16.7158 23.7586 14.3849C24.2336 12.0539 24.0043 9.63417 23.1002 7.43401C22.1961 5.2335 20.6579 3.35171 18.6813 2.02811C16.7046 0.704216 14.379 -0.00174219 12.0002 3.25761e-06H11.9998Z" fill="black" fill-opacity="0.5"/>
<path d="M15.7092 9.3818C15.7092 11.4304 14.0486 13.0909 12.0001 13.0909C9.95153 13.0909 8.29102 11.4304 8.29102 9.3818C8.29102 7.33325 9.95153 5.67273 12.0001 5.67273C14.0486 5.67273 15.7092 7.33325 15.7092 9.3818Z" fill="black" fill-opacity="0.5"/>
</svg>
