<svg width="24" height="24" viewBox="0 0 24 24" fill="none" xmlns="http://www.w3.org/2000/svg">
<path d="M14.7418 13.5524C13.5967 13.5524 12.4985 13.0975 11.6888 12.2878C10.879 11.4781 10.4241 10.3799 10.4241 9.23475V1.91821C8.5648 2.20729 6.82181 3.00557 5.38837 4.22457C3.95493 5.44357 2.88702 7.03568 2.30301 8.82444C1.719 10.6132 1.64169 12.5287 2.07966 14.3587C2.51763 16.1887 3.45377 17.8617 4.78432 19.1923C6.11487 20.5228 7.78786 21.459 9.61786 21.8969C11.4479 22.3349 13.3634 22.2576 15.1521 21.6736C16.9409 21.0896 18.533 20.0217 19.752 18.5882C20.971 17.1548 21.7693 15.4118 22.0584 13.5524H14.7418Z" fill="#E3EFFF"/>
<path d="M12.7794 1.82373V9.23447C12.7731 9.49614 12.8192 9.75642 12.915 9.99999C13.0108 10.2436 13.1544 10.4655 13.3373 10.6528C13.5202 10.84 13.7386 10.9888 13.9799 11.0904C14.2211 11.192 14.4802 11.2442 14.742 11.2442H22.1998C22.0216 8.8047 20.9719 6.51073 19.2424 4.78117C17.5128 3.05162 15.2188 2.0019 12.7794 1.82373Z" fill="#E3EFFF"/>
</svg>
