<svg width="24" height="21" viewBox="0 0 24 21" fill="none" xmlns="http://www.w3.org/2000/svg">
<path d="M23.5301 4.01306e-05H9.48766C9.3593 0.00425893 9.23782 0.0591802 9.14984 0.152774C9.06187 0.246368 9.01453 0.370974 9.01828 0.499414V2.76161L9.48766 2.85646C9.9136 2.94513 10.296 3.1777 10.5706 3.51506C10.8453 3.85248 10.9954 4.27412 10.9958 4.7092L11.0158 10.7216V10.7215C11.0355 12.4525 10.425 14.1317 9.29788 15.4457C9.20795 15.5506 9.11303 15.6505 9.0182 15.7453L9.01827 20.4743C9.01452 20.6028 9.06179 20.7274 9.14976 20.821C9.2378 20.9146 9.3593 20.9695 9.48766 20.9737H19.5053V17.9775C19.5064 17.5805 19.6646 17.2002 19.9453 16.9195C20.226 16.6388 20.6064 16.4806 21.0034 16.4794H23.9996V0.499374C24.0033 0.370936 23.956 0.246334 23.868 0.152734C23.78 0.0591401 23.6586 0.004218 23.5302 0L23.5301 4.01306e-05ZM19.9845 14.4818H13.0333C12.8548 14.4818 12.69 14.3867 12.6008 14.2322C12.5115 14.0776 12.5115 13.8873 12.6008 13.7328C12.69 13.5782 12.8548 13.4831 13.0333 13.4831H19.9845C20.1629 13.4831 20.3277 13.5783 20.417 13.7328C20.5061 13.8873 20.5061 14.0776 20.417 14.2322C20.3277 14.3867 20.1629 14.4818 19.9845 14.4818ZM19.9845 11.4856H13.0333C12.8548 11.4856 12.69 11.3905 12.6008 11.236C12.5115 11.0814 12.5115 10.8911 12.6008 10.7366C12.69 10.582 12.8548 10.4869 13.0333 10.4869H19.9845C20.1629 10.4869 20.3277 10.5821 20.417 10.7366C20.5061 10.8911 20.5061 11.0814 20.417 11.236C20.3277 11.3905 20.1629 11.4856 19.9845 11.4856ZM19.9845 8.48944H13.0333C12.8548 8.48944 12.69 8.39429 12.6008 8.23976C12.5115 8.08524 12.5115 7.89492 12.6008 7.74038C12.69 7.58584 12.8548 7.4907 13.0333 7.4907H19.9845C20.1629 7.4907 20.3277 7.58586 20.417 7.74038C20.5061 7.89491 20.5061 8.08522 20.417 8.23976C20.3277 8.39429 20.1629 8.48944 19.9845 8.48944ZM19.9845 5.49324H13.0333C12.8548 5.49324 12.69 5.39808 12.6008 5.24356C12.5115 5.08904 12.5115 4.89872 12.6008 4.74418C12.69 4.58964 12.8548 4.4945 13.0333 4.4945H19.9845C20.1629 4.4945 20.3277 4.58966 20.417 4.74418C20.5061 4.89871 20.5061 5.08902 20.417 5.24356C20.3277 5.39809 20.1629 5.49324 19.9845 5.49324Z" fill="black" fill-opacity="0.5"/>
<path d="M21.004 17.4781C20.8717 17.4785 20.7449 17.5312 20.6514 17.6248C20.5578 17.7184 20.505 17.8452 20.5046 17.9775V20.9737L24.0002 17.4781L21.004 17.4781Z" fill="black" fill-opacity="0.5"/>
<path d="M10.0176 10.7265L9.99762 4.70912C9.99942 4.50452 9.9302 4.3056 9.80184 4.14622C9.67348 3.98692 9.49388 3.877 9.29356 3.8352L9.01888 3.78028L5.16368 3.01122C5.10766 3.00106 5.05079 2.99606 4.99383 2.99622C4.93696 2.99645 4.88016 3.00145 4.82407 3.01122L0.699267 3.86012C0.499501 3.90402 0.320907 4.01535 0.193567 4.17544C0.0662229 4.33544 -0.00213706 4.5345 5.09377e-05 4.73904L0.0150509 10.7566C0.0250509 13.9226 2.30725 16.4794 5.01885 16.4794H5.03385H5.03377C5.83885 16.4548 6.62501 16.2295 7.32097 15.824C8.01683 15.4185 8.60043 14.8456 9.01887 14.1573C9.67919 13.1356 10.0264 11.9431 10.0176 10.7265L10.0176 10.7265Z" fill="black" fill-opacity="0.5"/>
</svg>
