<svg width="36" height="36" viewBox="0 0 36 36" fill="none" xmlns="http://www.w3.org/2000/svg">
<path d="M8.46 6.75V9.615H3.375V12.42C3.375 17.115 4.77 19.7325 8.1225 21.36C9.36884 22.0301 10.5192 22.8651 11.5425 23.8425C12.365 24.7198 13.3681 25.4081 14.4825 25.86L15.75 26.25V29.6475H13.815C11.475 29.6475 10.6875 30.18 10.6875 31.7625V32.8275H25.3125V31.875C25.3125 30.3225 24.3525 29.625 22.1325 29.625H20.25V26.25L21.54 25.8675C22.656 25.4152 23.6595 24.724 24.48 23.8425C25.5475 22.825 26.7425 21.9502 28.035 21.24C29.0386 20.757 29.9348 20.0773 30.6705 19.2411C31.4062 18.4049 31.9663 17.4294 32.3175 16.3725C32.5563 15.0639 32.6668 13.7351 32.6475 12.405V9.6225H27.54V6.75H8.46ZM18 11.5275L19.5375 14.7075H23.2425L20.34 17.385L21.1725 20.805L18 19.1025L14.8275 20.8275L15.66 17.4075L12.75 14.73H16.4625L18 11.5275ZM6.045 12.48H8.415V18.39C8.1675 18.54 7.395 17.64 6.8325 16.6125C6.51315 15.8259 6.30856 14.9974 6.225 14.1525L6.045 12.48ZM27.585 12.48H30.165L29.9475 14.13C29.8964 15.5035 29.3441 16.8108 28.395 17.805C28.1717 18.1093 27.8884 18.3646 27.5625 18.555L27.585 12.48Z" fill="white" stroke="white" stroke-linecap="round" stroke-linejoin="round"/>
</svg>
