<svg width="20" height="20" viewBox="0 0 20 20" fill="none" xmlns="http://www.w3.org/2000/svg">
<path d="M2.97127 2.15385C2.97127 2.51495 2.67853 2.80769 2.31742 2.80769C1.95631 2.80769 1.66357 2.51495 1.66357 2.15385C1.66357 1.79274 1.95631 1.5 2.31742 1.5C2.67853 1.5 2.97127 1.79274 2.97127 2.15385Z" stroke="#353E5C" stroke-linecap="round" stroke-linejoin="round"/>
<path d="M2.97127 9.99992C2.97127 10.361 2.67853 10.6538 2.31742 10.6538C1.95631 10.6538 1.66357 10.361 1.66357 9.99992C1.66357 9.63886 1.95631 9.34607 2.31742 9.34607C2.67853 9.34607 2.97127 9.63886 2.97127 9.99992Z" stroke="#353E5C" stroke-linecap="round" stroke-linejoin="round"/>
<path d="M2.97127 17.8462C2.97127 18.2073 2.67853 18.5001 2.31742 18.5001C1.95631 18.5001 1.66357 18.2073 1.66357 17.8462C1.66357 17.4852 1.95631 17.1924 2.31742 17.1924C2.67853 17.1924 2.97127 17.4852 2.97127 17.8462Z" stroke="#353E5C" stroke-linecap="round" stroke-linejoin="round"/>
<path d="M7.22131 2.15381H18.3367" stroke="#353E5C" stroke-width="1.5" stroke-linecap="square" stroke-linejoin="round"/>
<path d="M7.22131 10H18.3367" stroke="#353E5C" stroke-width="1.5" stroke-linecap="square" stroke-linejoin="round"/>
<path d="M7.22131 17.8462H18.3367" stroke="#353E5C" stroke-width="1.5" stroke-linecap="square" stroke-linejoin="round"/>
</svg>
