<svg width="24" height="20" viewBox="0 0 24 20" fill="none" xmlns="http://www.w3.org/2000/svg">
<path d="M13.1325 15.378C13.1325 14.0767 13.7658 12.8531 14.9161 11.9329C16.0664 11.0126 17.5955 10.506 19.2225 10.506C20.558 10.506 21.8278 10.848 22.8764 11.4795C22.9345 10.8 22.9706 10.0399 22.972 9.189C22.9692 7.04887 22.7447 5.48175 22.5052 4.33012C22.0861 2.43263 19.9317 0.709125 17.5598 0.373875C16.1203 0.181875 14.1614 0.00225 11.4858 0C8.81062 0.00225 6.85125 0.181875 5.41172 0.3735C3.04031 0.70875 0.885937 2.43225 0.466875 4.32975C0.227344 5.48137 0.00328125 7.0485 0 9.18862C0.00328125 11.3287 0.227344 12.8962 0.466875 14.0479C0.885937 15.9454 3.04031 17.6689 5.41219 18.0041C6.85172 18.1957 8.81062 18.375 11.4862 18.3776C12.5498 18.3765 13.5 18.3476 14.3494 18.3011C13.56 17.4622 13.1325 16.4467 13.1325 15.378ZM5.81062 4.44075H17.1614C17.8955 4.44075 18.4908 4.917 18.4908 5.50425C18.4908 6.0915 17.8955 6.56775 17.1614 6.56775H5.81062C5.07656 6.56775 4.48125 6.0915 4.48125 5.50425C4.48125 4.917 5.07656 4.44075 5.81062 4.44075ZM5.81062 11.0089C5.07656 11.0089 4.48125 10.5326 4.48125 9.94537C4.48125 9.35812 5.07656 8.88188 5.81062 8.88188H12.4739C13.208 8.88188 13.8033 9.35812 13.8033 9.94537C13.8033 10.5326 13.208 11.0089 12.4739 11.0089H5.81062Z" fill="black" fill-opacity="0.5"/>
<path d="M19.2226 11.556C16.584 11.556 14.4451 13.2671 14.4451 15.378C14.4451 17.4889 16.584 19.2 19.2226 19.2C21.8612 19.2 24.0001 17.4889 24.0001 15.378C24.0001 13.2671 21.8612 11.556 19.2226 11.556ZM20.1132 17.2744C20.1132 17.6677 19.7143 17.9869 19.2226 17.9869C18.7308 17.9869 18.3319 17.6677 18.3319 17.2744V15.3945C18.3319 15.0011 18.7308 14.682 19.2226 14.682C19.7143 14.682 20.1132 15.0011 20.1132 15.3945V17.2744ZM20.0766 13.8694C20.0438 14.0179 19.8751 14.1529 19.6894 14.1791C19.5769 14.1941 19.4232 14.208 19.2137 14.2084C19.0041 14.2084 18.8508 14.1941 18.7379 14.1791C18.5523 14.1529 18.3835 14.0179 18.3507 13.8694C18.3319 13.7794 18.3146 13.6564 18.3141 13.4888C18.3141 13.3211 18.3319 13.1985 18.3507 13.1081C18.3835 12.9596 18.5523 12.8246 18.7379 12.7984C18.8504 12.7834 19.0041 12.7695 19.2137 12.7691C19.4232 12.7691 19.5765 12.7834 19.6894 12.7984C19.8751 12.8246 20.0438 12.9596 20.0766 13.1081C20.0954 13.1981 20.1127 13.3211 20.1132 13.4888C20.1132 13.6564 20.0954 13.779 20.0766 13.8694Z" fill="black" fill-opacity="0.5"/>
</svg>
