<svg width="199" height="271" viewBox="0 0 199 271" fill="none" xmlns="http://www.w3.org/2000/svg">
<g clip-path="url(#clip0_309_40859)">
<path d="M0.468768 103.133C2.29704 101.399 8.81317 105.243 11.7665 107.352C15.0242 109.737 17.8067 112.71 19.9703 116.118L13.501 122.26C10.0379 120.33 7.03176 117.675 4.68785 114.478C2.01576 111.009 -1.26574 104.727 0.468768 103.133Z" fill="#EBB2F9"/>
<path d="M24.658 138.339C17.345 132.526 4.68772 122.447 5.62529 113.071C5.63056 112.122 5.84306 111.186 6.24793 110.328C6.65279 109.469 7.24025 108.71 7.96922 108.102C15.2823 102.852 36.7996 119.775 39.6123 122.166C42.4251 124.557 44.769 126.572 46.8785 128.448C52.9259 134.354 54.051 143.449 48.3786 147.199C47.4382 147.836 46.3898 148.297 45.2847 148.559C39.4248 150.012 33.5181 145.324 24.658 138.339Z" fill="#FF9E94"/>
<path d="M68.0679 217.892C77.5042 234.225 91.9543 247.08 109.274 254.551C117.387 257.899 125.978 259.94 134.729 260.599L147.105 269.974L199 236.503L185.921 223.893C189.375 200.969 188.549 177.603 183.483 154.981C179.36 136.636 172.502 119.016 163.138 102.711L154.137 103.18L68.0679 217.892Z" fill="#FF9E94"/>
<path d="M107.05 2.76407L42.5565 13.8693C28.0385 16.3691 18.2959 30.1648 20.7957 44.6828L48.0576 203.006C50.5574 217.524 64.3531 227.267 78.8711 224.767L143.365 213.662C157.883 211.162 167.625 197.366 165.125 182.848L137.863 24.5248C135.364 10.0068 121.568 0.264208 107.05 2.76407Z" fill="#8DC1FF"/>
<path d="M74.3026 227.502C67.4641 227.48 60.8525 225.047 55.6308 220.631C50.409 216.215 46.9115 210.099 45.7534 203.36L18.4701 45.0504C17.1788 37.4611 18.9512 29.6695 23.3983 23.3855C27.8454 17.1016 34.604 12.8386 42.1907 11.5321L106.649 0.421895C114.23 -0.857545 122.009 0.913649 128.288 5.34891C134.568 9.78417 138.838 16.5234 140.167 24.0956L167.451 182.405C168.749 189.959 167.016 197.72 162.627 204.004C158.239 210.288 151.55 214.587 144.011 215.97L79.2717 227.033C77.6314 227.329 75.9692 227.486 74.3026 227.502ZM111.571 4.68786C110.189 4.68056 108.809 4.79033 107.446 5.01601L42.9407 16.1263C39.7868 16.6705 36.7715 17.8328 34.0683 19.5464C31.3651 21.2601 29.0274 23.4911 27.1895 26.1114C25.3348 28.7109 24.0185 31.655 23.3181 34.7706C22.6177 37.8861 22.5473 41.1103 23.111 44.2535L50.3944 202.563C50.9332 205.716 52.0886 208.732 53.7945 211.439C55.5004 214.145 57.7232 216.488 60.3358 218.334C62.9483 220.181 65.8994 221.494 69.0199 222.198C72.1405 222.902 75.3693 222.984 78.5216 222.439L142.98 211.329C149.334 210.218 154.989 206.634 158.706 201.362C162.423 196.09 163.898 189.56 162.81 183.202L135.526 24.8926C134.545 19.2461 131.606 14.1258 127.226 10.4308C122.845 6.73584 117.302 4.70248 111.571 4.68786Z" fill="#190404"/>
<path d="M113.915 55.223C114.897 60.9521 114.161 66.8438 111.8 72.1553C109.439 77.4669 105.559 81.9606 100.648 85.0702C95.7367 88.1797 90.0151 89.7659 84.2041 89.6288C78.393 89.4917 72.7526 87.6374 67.9937 84.2997C63.2349 80.962 59.5706 76.2902 57.4627 70.8732C55.3548 65.4562 54.8976 59.5364 56.1488 53.86C57.4001 48.1836 60.3037 43.0047 64.4937 38.9759C68.6837 34.9471 73.9725 32.2488 79.6936 31.2211C83.5182 30.5341 87.441 30.6111 91.2357 31.4475C95.0304 32.284 98.622 33.8634 101.803 36.0947C104.985 38.326 107.693 41.165 109.771 44.448C111.85 47.731 113.258 51.3931 113.915 55.223Z" fill="white"/>
<path d="M87.5695 59.7703C87.6922 60.4787 87.5292 61.207 87.1163 61.7956C86.7034 62.3842 86.0741 62.7853 85.3662 62.9111C84.647 63.0212 83.9131 62.8483 83.3187 62.4287C82.7243 62.0091 82.3156 61.3755 82.1785 60.661C82.0694 59.9473 82.2438 59.2193 82.6642 58.6325C83.0846 58.0456 83.7179 57.6464 84.4286 57.5201C84.7835 57.4532 85.1482 57.4588 85.5008 57.5368C85.8534 57.6148 86.1866 57.7634 86.4801 57.9737C86.7737 58.184 87.0216 58.4516 87.2088 58.7604C87.396 59.0692 87.5187 59.4127 87.5695 59.7703Z" fill="#190404"/>
<path d="M75.4277 52.6916C79.3655 55.1762 82.1782 57.7545 81.7094 58.4577C81.2406 59.1608 77.7247 57.7545 73.8338 55.3168C69.9429 52.8791 67.0833 50.3008 67.5521 49.5976C68.0208 48.8944 71.5368 50.2539 75.4277 52.6916Z" fill="#190404"/>
<path d="M92.7728 48.0974C89.0694 52.7853 86.6317 56.9575 87.288 57.4732C87.9443 57.9888 91.4602 54.6605 95.1636 50.0195C98.8671 45.3785 101.352 41.1594 100.648 40.6437C99.9453 40.1281 96.4763 43.4565 92.7728 48.0974Z" fill="#190404"/>
<path d="M52.7854 76.6935C52.4506 76.6912 52.1303 76.5564 51.8947 76.3185C49.455 73.5711 47.8926 70.157 47.4081 66.5149C46.9236 62.8728 47.5392 59.169 49.1757 55.8794C49.2277 55.7223 49.3124 55.578 49.4242 55.4561C49.5359 55.3341 49.6722 55.2371 49.8241 55.1716C49.9761 55.1061 50.1401 55.0735 50.3055 55.0759C50.471 55.0783 50.634 55.1158 50.7839 55.1857C50.9338 55.2557 51.0672 55.3566 51.1754 55.4818C51.2835 55.607 51.3639 55.7537 51.4112 55.9122C51.4586 56.0708 51.4718 56.2375 51.4501 56.4015C51.4284 56.5655 51.3722 56.7231 51.2853 56.8638C50.1445 59.2145 49.5667 61.7986 49.5976 64.4113C49.6449 68.3172 51.0921 72.0765 53.6761 75.0059C53.7882 75.1111 53.8776 75.2382 53.9386 75.3793C53.9997 75.5204 54.0312 75.6725 54.0312 75.8262C54.0312 75.98 53.9997 76.1321 53.9386 76.2732C53.8776 76.4143 53.7882 76.5414 53.6761 76.6466C53.397 76.779 53.0769 76.7959 52.7854 76.6935Z" fill="#190404"/>
<path d="M49.9727 81.897C49.7947 81.9025 49.6177 81.8674 49.4552 81.7943C49.2928 81.7212 49.1491 81.612 49.0352 81.4751C44.8483 76.7133 42.431 70.6537 42.1909 64.3175C42.1516 60.0196 43.0977 55.7699 44.9567 51.8946C45.0252 51.7092 45.1412 51.545 45.2933 51.4187C45.4454 51.2924 45.628 51.2083 45.8229 51.1751C46.0178 51.1418 46.2179 51.1605 46.4033 51.2292C46.5887 51.2979 46.7526 51.4142 46.8787 51.5665C47.0209 51.6268 47.1491 51.7158 47.2553 51.8278C47.3616 51.9398 47.4437 52.0725 47.4965 52.2176C47.5492 52.3628 47.5716 52.5172 47.5621 52.6713C47.5526 52.8254 47.5115 52.9759 47.4413 53.1135C45.7443 56.6695 44.8786 60.565 44.9098 64.505C45.0766 70.3015 47.2657 75.8571 51.0978 80.2094C51.3126 80.4284 51.4328 80.723 51.4328 81.0297C51.4328 81.3365 51.3126 81.631 51.0978 81.8501C50.9266 81.9442 50.736 81.9974 50.5408 82.0056C50.3456 82.0137 50.1512 81.9765 49.9727 81.897Z" fill="#190404"/>
<path d="M46.5506 87.9912C46.2158 87.9889 45.8955 87.8541 45.6599 87.6162C40.8623 82.1707 37.7889 75.4237 36.8292 68.23C35.8695 61.0363 37.0666 53.7195 40.2688 47.2068C40.4317 46.9596 40.6854 46.7865 40.975 46.7251C41.2645 46.6636 41.5667 46.7188 41.8158 46.8786C41.958 46.939 42.0862 47.0279 42.1924 47.1399C42.2987 47.252 42.3808 47.3847 42.4336 47.5298C42.4863 47.6749 42.5087 47.8293 42.4992 47.9834C42.4897 48.1376 42.4486 48.2881 42.3784 48.4256C39.3779 54.5313 38.2573 61.3902 39.1586 68.1333C40.0599 74.8765 42.9426 81.2003 47.4413 86.3036C47.5534 86.4088 47.6427 86.5359 47.7038 86.677C47.7649 86.8181 47.7964 86.9702 47.7964 87.124C47.7964 87.2777 47.7649 87.4298 47.7038 87.5709C47.6427 87.712 47.5534 87.8391 47.4413 87.9443C47.1622 88.0768 46.8421 88.0936 46.5506 87.9912Z" fill="#190404"/>
<path d="M120.056 65.1145C119.919 65.1576 119.772 65.1576 119.634 65.1145C119.49 65.0628 119.358 64.9822 119.246 64.8776C119.134 64.773 119.044 64.6465 118.983 64.506C118.921 64.3655 118.889 64.214 118.888 64.0606C118.888 63.9073 118.918 63.7554 118.978 63.6143C120.365 60.0618 120.498 56.1421 119.353 52.5041C118.477 50.0401 117.068 47.7994 115.228 45.9411C115.12 45.8303 115.035 45.6993 114.978 45.5557C114.921 45.4121 114.893 45.2587 114.895 45.1041C114.897 44.9496 114.93 44.797 114.991 44.6551C115.052 44.5131 115.141 44.3846 115.251 44.2769C115.362 44.1691 115.493 44.0843 115.637 44.0272C115.78 43.97 115.934 43.9418 116.088 43.9439C116.243 43.9461 116.395 43.9787 116.537 44.0399C116.679 44.101 116.808 44.1895 116.916 44.3003C119.025 46.396 120.628 48.9453 121.603 51.754C122.942 55.9061 122.809 60.3923 121.228 64.4582C121.119 64.6703 120.949 64.8456 120.741 64.9623C120.533 65.079 120.295 65.1319 120.056 65.1145Z" fill="#190404"/>
<path d="M124.463 69.0522H124.041C123.757 68.9373 123.53 68.7161 123.407 68.4358C123.285 68.1555 123.277 67.8384 123.385 67.5521C125.517 62.1585 125.7 56.1895 123.9 50.6758C122.641 46.9396 120.521 43.5514 117.712 40.7844C117.599 40.6751 117.509 40.544 117.447 40.399C117.386 40.254 117.354 40.0981 117.354 39.9406C117.354 39.7831 117.386 39.6271 117.447 39.4822C117.509 39.3372 117.599 39.2061 117.712 39.0968C117.939 38.879 118.242 38.7574 118.556 38.7574C118.871 38.7574 119.173 38.879 119.4 39.0968C122.444 42.1281 124.753 45.8165 126.151 49.8789C128.087 55.9021 127.888 62.4083 125.588 68.3022C125.495 68.5243 125.339 68.7141 125.139 68.8475C124.939 68.981 124.704 69.0522 124.463 69.0522Z" fill="#190404"/>
<path d="M129.713 73.6932H129.291C129.147 73.6416 129.015 73.561 128.903 73.4563C128.791 73.3517 128.701 73.2253 128.64 73.0848C128.578 72.9443 128.546 72.7927 128.545 72.6394C128.545 72.486 128.575 72.3342 128.635 72.1931C131.568 64.6976 131.833 56.4214 129.385 48.7537C127.628 43.4548 124.659 38.6391 120.713 34.6901C120.601 34.5849 120.511 34.4578 120.45 34.3167C120.389 34.1756 120.358 34.0235 120.358 33.8698C120.358 33.716 120.389 33.5639 120.45 33.4228C120.511 33.2817 120.601 33.1546 120.713 33.0494C120.822 32.936 120.953 32.8457 121.098 32.7841C121.243 32.7225 121.399 32.6907 121.557 32.6907C121.714 32.6907 121.87 32.7225 122.015 32.7841C122.16 32.8457 122.291 32.936 122.4 33.0494C126.646 37.1638 129.858 42.2237 131.776 47.8162C134.46 56.0268 134.178 64.9191 130.979 72.9431C130.893 73.1993 130.718 73.416 130.486 73.5537C130.253 73.6915 129.979 73.741 129.713 73.6932Z" fill="#190404"/>
<path d="M51.5666 137.12L47.535 113.681L72.5214 109.368L76.5529 132.807L51.5666 137.12ZM50.2071 115.556L53.4886 134.307L73.8809 130.791L70.5993 112.04L50.2071 115.556Z" fill="white"/>
<path d="M63.7081 124.744C67.7865 130.37 70.0836 135.62 68.9116 136.464C67.7397 137.308 63.4737 133.464 59.5359 127.838C55.5981 122.213 53.2073 116.962 54.3792 116.118C55.5512 115.275 59.6765 119.119 63.7081 124.744Z" fill="#190404"/>
<path d="M70.6461 118.931C67.9271 128.307 66.8958 136.182 68.2553 136.604C69.6147 137.026 72.9431 129.76 75.709 120.384C78.4748 111.009 79.4593 103.18 78.0998 102.758C76.7403 102.336 73.365 109.602 70.6461 118.931Z" fill="#190404"/>
<path d="M57.2388 170.498L53.2072 147.058L78.2404 142.746L82.272 166.185L57.2388 170.498ZM55.9262 148.887L59.1608 167.638L79.6937 164.075L76.459 145.324L55.9262 148.887Z" fill="white"/>
<path d="M69.4741 158.122C73.5056 163.747 75.8496 168.998 74.6776 169.841C73.5056 170.685 69.2397 166.841 65.3019 161.216C61.3641 155.59 58.9264 150.34 60.0983 149.496C61.2703 148.652 65.63 152.496 69.4741 158.122Z" fill="#190404"/>
<path d="M76.4121 152.309C73.6931 161.685 72.6149 169.56 74.0213 169.982C75.4276 170.404 78.7091 163.138 81.475 153.762C84.2408 144.386 85.2253 136.558 83.8189 136.136C82.4125 135.714 79.0842 142.98 76.4121 152.309Z" fill="#190404"/>
<path d="M63.005 203.875L58.9734 180.436L83.9598 176.123L88.0382 199.562L63.005 203.875ZM61.6924 182.264L64.927 201.016L85.3193 197.5L82.0378 178.748L61.6924 182.264Z" fill="white"/>
<path d="M75.2404 191.499C79.2719 197.125 81.569 202.375 80.397 203.219C79.2251 204.063 75.006 200.219 71.0213 194.593C67.0366 188.968 64.5989 183.718 65.6303 182.827C66.6616 181.936 71.1619 185.874 75.2404 191.499Z" fill="#190404"/>
<path d="M82.1313 185.686C79.4593 195.062 78.381 202.938 79.7874 203.313C81.1938 203.688 84.4753 196.515 87.1942 187.14C89.9132 177.764 90.9914 169.888 89.585 169.513C88.1787 169.138 84.8503 176.358 82.1313 185.686Z" fill="#190404"/>
<path d="M117.947 111.618L91.0852 116.306C90.6873 116.374 90.2786 116.282 89.9489 116.049C89.6192 115.816 89.3956 115.462 89.3272 115.064C89.2589 114.666 89.3513 114.257 89.5843 113.927C89.8173 113.598 90.1717 113.374 90.5695 113.306L117.431 108.618C117.829 108.549 118.238 108.642 118.567 108.875C118.897 109.108 119.121 109.462 119.189 109.86C119.257 110.258 119.165 110.667 118.932 110.996C118.699 111.326 118.345 111.55 117.947 111.618Z" fill="white"/>
<path d="M138.011 108.196L122.307 110.868C122.106 110.896 121.903 110.884 121.707 110.833C121.512 110.782 121.329 110.693 121.167 110.571C121.006 110.449 120.871 110.297 120.769 110.122C120.667 109.948 120.6 109.755 120.572 109.555C120.544 109.355 120.556 109.152 120.607 108.956C120.658 108.761 120.747 108.577 120.869 108.416C120.991 108.255 121.143 108.12 121.318 108.018C121.492 107.915 121.685 107.849 121.885 107.821L137.589 105.149C137.981 105.081 138.383 105.171 138.708 105.399C139.034 105.628 139.255 105.976 139.324 106.368C139.364 106.575 139.361 106.787 139.316 106.993C139.271 107.199 139.184 107.394 139.062 107.565C138.939 107.736 138.782 107.88 138.601 107.989C138.421 108.097 138.22 108.168 138.011 108.196Z" fill="white"/>
<path d="M118.79 116.54L91.929 121.228C91.5374 121.296 91.1348 121.206 90.8096 120.978C90.4843 120.749 90.2631 120.401 90.1945 120.009C90.1255 119.612 90.2142 119.204 90.4419 118.871C90.6695 118.538 91.0181 118.308 91.4133 118.228L118.275 113.54C118.666 113.472 119.069 113.562 119.394 113.791C119.719 114.019 119.941 114.367 120.009 114.759C120.078 115.156 119.99 115.565 119.762 115.897C119.534 116.23 119.186 116.461 118.79 116.54Z" fill="white"/>
<path d="M128.307 114.9L123.15 115.79C122.753 115.859 122.345 115.771 122.012 115.543C121.679 115.315 121.448 114.967 121.369 114.571C121.329 114.371 121.33 114.164 121.372 113.964C121.415 113.763 121.498 113.574 121.617 113.407C121.735 113.24 121.887 113.1 122.062 112.993C122.237 112.887 122.432 112.818 122.635 112.79L127.791 111.899C128.183 111.831 128.585 111.921 128.911 112.15C129.236 112.378 129.457 112.727 129.526 113.118C129.595 113.515 129.506 113.924 129.278 114.257C129.051 114.589 128.702 114.82 128.307 114.9Z" fill="white"/>
<path d="M124.369 148.887L97.5076 153.575C97.116 153.643 96.7134 153.553 96.3882 153.324C96.063 153.095 95.8417 152.747 95.7731 152.356C95.7041 151.958 95.7928 151.55 96.0205 151.217C96.2481 150.885 96.5967 150.654 96.9919 150.574L123.807 145.886C124.004 145.846 124.207 145.845 124.405 145.885C124.602 145.925 124.79 146.004 124.956 146.118C125.122 146.231 125.264 146.378 125.372 146.547C125.481 146.717 125.554 146.907 125.588 147.105C125.657 147.502 125.568 147.911 125.341 148.244C125.113 148.576 124.764 148.807 124.369 148.887Z" fill="white"/>
<path d="M144.386 145.324L128.682 148.043C128.284 148.111 127.875 148.019 127.546 147.786C127.216 147.553 126.992 147.198 126.924 146.801C126.856 146.403 126.948 145.994 127.181 145.664C127.414 145.335 127.768 145.111 128.166 145.043L143.871 142.324C144.269 142.255 144.677 142.348 145.007 142.581C145.337 142.814 145.56 143.168 145.629 143.566C145.697 143.964 145.605 144.373 145.372 144.702C145.139 145.032 144.784 145.255 144.386 145.324Z" fill="white"/>
<path d="M116.54 155.262L98.4452 158.403C98.0473 158.471 97.6386 158.379 97.3089 158.146C96.9792 157.913 96.7556 157.559 96.6872 157.161C96.6188 156.763 96.7113 156.354 96.9443 156.024C97.1773 155.695 97.5317 155.471 97.9295 155.403L116.118 152.262C116.51 152.194 116.913 152.284 117.238 152.512C117.563 152.741 117.784 153.089 117.853 153.481C117.886 153.684 117.878 153.892 117.83 154.093C117.782 154.293 117.694 154.482 117.572 154.648C117.449 154.814 117.295 154.954 117.118 155.059C116.941 155.165 116.745 155.234 116.54 155.262Z" fill="white"/>
<path d="M140.073 151.231L120.9 154.512C120.508 154.58 120.106 154.49 119.781 154.262C119.455 154.033 119.234 153.685 119.165 153.293C119.096 152.896 119.185 152.488 119.413 152.155C119.641 151.822 119.989 151.591 120.384 151.512L139.558 148.23C139.949 148.162 140.352 148.252 140.677 148.481C141.002 148.709 141.224 149.058 141.292 149.449C141.361 149.846 141.272 150.255 141.045 150.588C140.817 150.92 140.469 151.151 140.073 151.231Z" fill="white"/>
<path d="M130.276 183.296L103.414 187.983C103.023 188.052 102.62 187.961 102.295 187.733C101.97 187.504 101.748 187.156 101.68 186.765C101.611 186.367 101.7 185.959 101.927 185.626C102.155 185.294 102.503 185.063 102.899 184.983L129.76 180.295C129.957 180.262 130.159 180.269 130.354 180.315C130.549 180.36 130.732 180.445 130.894 180.563C131.056 180.681 131.192 180.83 131.295 181.001C131.398 181.173 131.466 181.363 131.495 181.561C131.551 181.951 131.456 182.348 131.229 182.67C131.003 182.992 130.662 183.216 130.276 183.296Z" fill="white"/>
<path d="M150.34 179.827L134.636 182.546C134.241 182.593 133.843 182.487 133.525 182.249C133.206 182.011 132.992 181.66 132.926 181.268C132.859 180.876 132.946 180.474 133.169 180.144C133.391 179.815 133.732 179.583 134.12 179.498L150.012 176.826C150.403 176.758 150.806 176.848 151.131 177.077C151.456 177.305 151.678 177.654 151.746 178.045C151.779 178.256 151.768 178.471 151.714 178.677C151.66 178.883 151.564 179.076 151.432 179.243C151.3 179.41 151.135 179.548 150.947 179.649C150.759 179.749 150.552 179.81 150.34 179.827Z" fill="white"/>
<path d="M122.447 189.671L104.258 192.812C104.061 192.845 103.859 192.839 103.664 192.793C103.469 192.747 103.286 192.662 103.124 192.545C102.962 192.427 102.826 192.278 102.723 192.106C102.62 191.935 102.552 191.744 102.524 191.546C102.455 191.155 102.546 190.752 102.774 190.427C103.003 190.102 103.351 189.88 103.742 189.812L121.884 186.671C122.276 186.603 122.679 186.693 123.004 186.921C123.329 187.15 123.55 187.498 123.619 187.89C123.66 188.084 123.662 188.284 123.625 188.479C123.589 188.674 123.514 188.859 123.405 189.025C123.296 189.191 123.155 189.333 122.99 189.444C122.826 189.555 122.641 189.632 122.447 189.671Z" fill="white"/>
<path d="M145.98 185.593L126.854 188.921C126.456 188.989 126.047 188.897 125.717 188.664C125.388 188.431 125.164 188.077 125.096 187.679C125.027 187.281 125.12 186.872 125.353 186.542C125.586 186.213 125.94 185.989 126.338 185.921L145.324 182.827C145.521 182.793 145.723 182.8 145.918 182.846C146.113 182.892 146.296 182.976 146.458 183.094C146.619 183.212 146.756 183.361 146.859 183.533C146.962 183.704 147.03 183.894 147.058 184.093C147.072 184.427 146.973 184.756 146.778 185.028C146.582 185.3 146.302 185.499 145.98 185.593Z" fill="white"/>
<path d="M96.9452 5.71916C97.5077 7.40679 87.8039 13.2666 76.6467 15.0949C65.4896 16.9232 55.4107 15.0949 55.3169 13.501C55.2232 11.9071 64.4583 10.1258 75.4279 8.01621C86.3975 5.90667 96.4764 4.17216 96.9452 5.71916Z" fill="#190404"/>
<path d="M163.138 102.711L154.371 95.9606C146.074 103.742 137.636 112.509 129.198 121.884C126.479 124.978 123.853 128.072 121.322 131.26C121.912 133.896 123.324 136.276 125.354 138.058C132.714 144.105 148.23 138.808 156.247 129.807C159.27 126.048 161.45 121.683 162.639 117.008C163.828 112.333 163.998 107.458 163.138 102.711Z" fill="#FF9E94"/>
<path d="M49.6445 146.965C57.942 151.371 72.24 159.012 73.0838 168.388C73.2458 169.328 73.204 170.291 72.9614 171.213C72.7187 172.135 72.2809 172.994 71.6774 173.732C65.3957 180.155 41.2063 167.404 38.0654 165.716C35.1986 164.19 32.4133 162.516 29.721 160.7C22.7361 156.012 19.9702 147.246 25.0331 142.371C25.8328 141.548 26.7892 140.895 27.8459 140.448C32.815 138.105 39.7062 141.667 49.6445 146.965Z" fill="#FF9E94"/>
<path d="M49.6446 168.154C57.9421 172.56 72.2401 180.202 73.0839 189.577C73.2459 190.517 73.2041 191.48 72.9615 192.402C72.7189 193.324 72.281 194.183 71.6776 194.922C65.3958 201.344 41.2064 188.593 38.0656 186.905C35.1508 185.384 32.3185 183.71 29.5805 181.889C22.5956 177.201 19.8297 168.435 24.8926 163.56C25.6923 162.737 26.6487 162.084 27.7054 161.638C32.8151 159.387 39.7063 162.856 49.6446 168.154Z" fill="#FF9E94"/>
<path d="M46.5036 188.593C54.0979 192.578 67.2708 199.516 67.599 208.657C67.7117 209.588 67.637 210.532 67.3794 211.434C67.1217 212.335 66.6864 213.176 66.0989 213.907C59.9578 220.33 37.5029 208.891 34.7839 207.344C32.1556 205.918 29.6049 204.353 27.1427 202.657C20.7203 198.297 18.4701 189.812 23.2517 184.889C24.0221 184.096 24.9268 183.446 25.9238 182.967C31.2211 180.577 37.5029 183.811 46.5036 188.593Z" fill="#FF9E94"/>
<path d="M72.2399 213.017C71.0679 215.267 63.6611 213.673 60.1921 212.595C56.3471 211.393 52.7671 209.467 49.6443 206.922L53.8165 198.906C57.7551 199.656 61.4826 201.256 64.7393 203.594C68.2552 205.985 73.365 210.954 72.2399 213.017Z" fill="#EBB2F9"/>
<path d="M75.381 193.796C74.209 196.047 66.7553 194.406 63.3332 193.328C59.4775 192.083 55.8968 190.11 52.7855 187.515C54.1449 184.843 55.5513 182.17 56.9577 179.545C60.8957 180.296 64.623 181.896 67.8804 184.233C71.3963 186.718 76.4592 191.64 75.381 193.796Z" fill="#EBB2F9"/>
<path d="M77.1624 173.779C76.0373 176.029 68.5836 174.389 65.1615 173.357C61.2998 172.172 57.7138 170.228 54.6138 167.638L58.7391 159.669C62.6888 160.429 66.4294 162.028 69.7087 164.357C73.1777 166.701 78.2875 171.623 77.1624 173.779Z" fill="#EBB2F9"/>
<path d="M117.525 137.308C115.321 134.495 121.181 126.385 124.322 122.822C127.829 118.855 132.123 115.662 136.932 113.446L144.761 123.525C141.833 127.893 137.913 131.507 133.323 134.073C128.447 136.839 119.634 140.027 117.525 137.308Z" fill="#EBB2F9"/>
<path d="M62.6299 176.451H62.3486L32.815 161.591C32.6783 161.522 32.5743 161.402 32.5259 161.257C32.4776 161.112 32.4888 160.954 32.5572 160.817C32.6256 160.68 32.7455 160.576 32.8906 160.528C33.0356 160.48 33.1939 160.491 33.3307 160.559L62.8643 175.373C62.9323 175.403 62.9937 175.447 63.0448 175.501C63.0958 175.556 63.1356 175.619 63.1618 175.689C63.1879 175.759 63.2 175.833 63.1972 175.908C63.1944 175.982 63.1769 176.055 63.1455 176.123C63.1004 176.222 63.0277 176.305 62.9362 176.363C62.8447 176.422 62.7383 176.452 62.6299 176.451Z" fill="#190404"/>
<path d="M56.8639 193.609H56.6295L30.9869 182.827C30.8452 182.756 30.734 182.636 30.6736 182.49C30.6133 182.343 30.608 182.18 30.6587 182.03C30.7294 181.889 30.8519 181.781 31.0005 181.729C31.1491 181.676 31.3122 181.683 31.4556 181.749L57.0983 192.531C57.2399 192.602 57.3512 192.721 57.4115 192.868C57.4718 193.014 57.4771 193.178 57.4264 193.328C57.3713 193.425 57.2884 193.504 57.1881 193.554C57.0879 193.604 56.975 193.623 56.8639 193.609Z" fill="#190404"/>
<path d="M157.606 128.588H157.325C157.184 128.517 157.076 128.395 157.024 128.246C156.971 128.098 156.978 127.935 157.044 127.791L161.731 118.041C161.8 117.904 161.92 117.8 162.065 117.751C162.21 117.703 162.368 117.714 162.505 117.783C162.642 117.851 162.746 117.971 162.794 118.116C162.842 118.261 162.831 118.419 162.763 118.556L158.075 128.307C158.027 128.39 157.959 128.459 157.877 128.508C157.795 128.558 157.702 128.585 157.606 128.588Z" fill="#190404"/>
</g>
<defs>
<clipPath id="clip0_309_40859">
<rect width="199" height="270.068" fill="white"/>
</clipPath>
</defs>
</svg>
